<svg xmlns="http://www.w3.org/2000/svg" width="46" height="39" fill="none" viewBox="0 0 46 39">
  <g filter="url(#a)">
    <path stroke="#C2252C" stroke-linecap="round" stroke-width="3.75" d="M28 21.25 39.25 10m0 11.25L28 10M7.362 18.653a6.371 6.371 0 0 1 0-6.556 2.548 2.548 0 0 1 1.686-1.188l2.874-.575a.765.765 0 0 0 .438-.26l3.513-4.216c2.008-2.41 3.012-3.614 3.908-3.29.896.325.896 1.893.896 5.03v15.555c0 3.136 0 4.704-.896 5.029-.896.324-1.9-.88-3.908-3.29l-3.513-4.216a.765.765 0 0 0-.438-.26l-2.874-.575a2.548 2.548 0 0 1-1.686-1.188Z" shape-rendering="crispEdges"/>
  </g>
  <defs>
    <filter id="a" width="44.546" height="37.476" x=".579" y=".637" color-interpolation-filters="sRGB" filterUnits="userSpaceOnUse">
      <feFlood flood-opacity="0" result="BackgroundImageFix"/>
      <feColorMatrix in="SourceAlpha" result="hardAlpha" values="0 0 0 0 0 0 0 0 0 0 0 0 0 0 0 0 0 0 127 0"/>
      <feOffset dy="4"/>
      <feGaussianBlur stdDeviation="2"/>
      <feComposite in2="hardAlpha" operator="out"/>
      <feColorMatrix values="0 0 0 0 0 0 0 0 0 0 0 0 0 0 0 0 0 0 0.25 0"/>
      <feBlend in2="BackgroundImageFix" result="effect1_dropShadow_137_805"/>
      <feBlend in="SourceGraphic" in2="effect1_dropShadow_137_805" result="shape"/>
    </filter>
  </defs>
</svg>
