<svg xmlns="http://www.w3.org/2000/svg" width="285" height="389" fill="none" viewBox="0 0 285 389">
  <path fill="#D9D9D9" d="M285 213.5c0 96.65-63.799 175-142.5 175C63.8 388.5 0 310.15 0 213.5S63.8 0 142.5 0C221.201 0 285 116.85 285 213.5Z"/>
  <g clip-path="url(#a)">
    <path fill="#3C0203" stroke="#A5A5A5" stroke-width=".002" d="M140.723 245.401c-5.708 0-10.335 4.628-10.335 10.337v54.025h-19.394a8.62 8.62 0 0 0 0 17.239h31.446a8.62 8.62 0 0 0 8.619-8.619v-62.645c0-5.709-4.627-10.337-10.336-10.337Z"/>
    <path fill="#540B0E" stroke="#A5A5A5" stroke-width=".002" d="M184.4 245.401c-5.708 0-10.335 4.628-10.335 10.337v54.025h-19.394a8.62 8.62 0 0 0 0 17.239h31.446a8.62 8.62 0 0 0 8.619-8.619v-62.645c0-5.709-4.627-10.337-10.336-10.337Z"/>
    <path fill="#370A0A" stroke="#A5A5A5" stroke-width=".002" d="M249.165 153.903c-5.513 0-9.983 4.47-9.983 9.983v3.153c-10.637-9.548-24.693-15.361-40.111-15.361H157.39v-27.465c0-26.19-19.015-47.925-43.989-52.187l.883-.883a4.606 4.606 0 1 0-6.514-6.514l-3.388 3.387v-1.41a4.606 4.606 0 0 0-9.212 0v5.473c-24.829 4.383-43.696 26.048-43.696 52.134v70.224c0 42.743 34.652 77.395 77.395 77.395h70.202c33.179 0 60.076-26.898 60.076-60.077v-47.868c.001-5.514-4.469-9.984-9.982-9.984Z"/>
    <path fill="#9E2A2B" stroke="#A5A5A5" stroke-width=".002" d="M214.347 182.582a2.273 2.273 0 0 1 2.273 2.273h.013c-1.195 31.989-27.506 57.557-59.787 57.557-32.282 0-58.593-25.568-59.787-57.557h.013a2.273 2.273 0 0 1 2.272-2.273h115.003Z"/>
    <path fill="#540B0E" stroke="#A5A5A5" stroke-width=".002" d="M83.873 126.832H41.758c-8.784 0-15.904 7.12-15.904 15.904 0 8.782 7.12 15.902 15.904 15.902h42.115c8.782 0 15.904-7.12 15.904-15.902 0-8.784-7.121-15.904-15.904-15.904Z"/>
    <path fill="#fff" stroke="#A5A5A5" stroke-width=".002" d="M101.91 118.673a5.563 5.563 0 1 0 0-11.127 5.563 5.563 0 0 0 0 11.127Z"/>
    <path fill="#540B0E" d="M121.41 116.582c-1.911 2.708-5.326-6.818-13.673-12.709-8.348-5.892-18.059-5.63-16.148-8.337 1.91-2.707 10.971-2.048 19.319 3.843 8.348 5.891 12.413 14.496 10.502 17.203Z"/>
  </g>
  <defs>
    <clipPath id="a">
      <path fill="#fff" d="M10 62h265v265H10z"/>
    </clipPath>
  </defs>
</svg>
