<svg xmlns="http://www.w3.org/2000/svg" width="284" height="284" fill="none" viewBox="0 0 284 284">
  <g clip-path="url(#a)">
    <path fill="#121212" d="M284 142C284 63.576 220.424 0 142 0S0 63.576 0 142s63.576 142 142 142 142-63.576 142-142Z"/>
    <path fill="#EDB4B4" stroke="#EDB4B4" stroke-width=".293" d="M218.589 203.075c-19.664-94.498-42.73-127.52-54.069-138.594a41.464 41.464 0 0 0-2.95-2.632c-1.72-1.385-2.902-2.068-3.536-2.394-11.432-7.06-27.372-7.906-47.094 1.265-20.495 9.533-35.338 25.653-40.083 41.163a17.88 17.88 0 0 1-7.509 9.864 12.748 12.748 0 0 0-4.81 5.565l-18.994 42.495c-.728 1.064-.752 2.494.09 3.551.838 1.055 2.23 1.355 3.43.897l46.249-12.365a18.403 18.403 0 0 0 11.368-8.947l.002-.002a1.863 1.863 0 0 1 1.85-.957c10.736 1.246 23.068-.269 35.438-4.825 3.518 23.28 1.516 52.602.164 66.741a7.632 7.632 0 0 0 1.951 5.869 7.615 7.615 0 0 0 5.651 2.503h65.374a7.65 7.65 0 0 0 5.927-2.826 7.66 7.66 0 0 0 1.551-6.371ZM87.762 146.08l-32.46 8.679 19.452-15.461a.814.814 0 0 0-.94-1.327l-24.9 15.615 15.112-33.817A6.756 6.756 0 0 1 70 115.795c.388 2.62 1.111 5.169 2.245 7.606 3.983 8.562 12.09 14.37 22.448 17.152.106.026.218.041.323.067-1.633 2.656-4.224 4.65-7.255 5.46Z"/>
    <ellipse cx="118.603" cy="95.484" fill="#121212" rx="6.5" ry="4" transform="rotate(-26.555 118.603 95.484)"/>
  </g>
  <defs>
    <clipPath id="a">
      <path fill="#fff" d="M0 0h284v284H0z"/>
    </clipPath>
  </defs>
</svg>
