<svg xmlns="http://www.w3.org/2000/svg" width="55" height="55" fill="none" viewBox="0 0 55 55">
  <path fill="#1E1E1E" stroke="#1E1E1E" stroke-width="2.569" d="M53.206 7.772v39.456a2.398 2.398 0 0 1-2.39 2.392H19.667c-1.315 0-2.331-1.076-2.331-2.392v-10.94a2.398 2.398 0 0 1 2.391-2.391 2.398 2.398 0 0 1 2.391 2.391v8.549h26.305V10.163H22.119v8.549a2.398 2.398 0 0 1-2.39 2.391 2.398 2.398 0 0 1-2.392-2.391V7.772c0-1.315 1.016-2.392 2.332-2.392h31.146a2.398 2.398 0 0 1 2.392 2.392ZM27.8 35.212c-.957.956-.897 2.451 0 3.408a2.36 2.36 0 0 0 1.674.717c.598 0 1.255-.24 1.674-.717l9.386-9.446c.896-.957.896-2.451 0-3.348l-9.327-9.565a2.382 2.382 0 0 0-3.407 0 2.382 2.382 0 0 0 0 3.408l5.32 5.38-28.934.06A2.398 2.398 0 0 0 1.793 27.5a2.398 2.398 0 0 0 2.392 2.391l28.934-.06-5.32 5.381Z"/>
</svg>
