<svg xmlns="http://www.w3.org/2000/svg" width="1440" height="284" fill="none" viewBox="0 0 1440 284">
  <path fill="#121212" d="M0 118h1440v49H0z"/>
  <g clip-path="url(#a)">
    <path fill="#121212" d="M813 142.5c0-51.639-41.861-93.5-93.5-93.5S626 90.861 626 142.5s41.861 93.5 93.5 93.5 93.5-41.861 93.5-93.5Z"/>
    <path fill="#EDB4B4" stroke="#EDB4B4" stroke-width=".293" d="M769.93 182.715c-12.948-62.222-28.135-83.966-35.602-91.258a27.484 27.484 0 0 0-1.942-1.733c-1.133-.911-1.911-1.362-2.328-1.576-7.528-4.648-18.023-5.206-31.009.833-13.495 6.277-23.269 16.891-26.393 27.104a11.78 11.78 0 0 1-4.944 6.495 8.405 8.405 0 0 0-3.168 3.664l-12.506 27.981c-.479.7-.495 1.642.059 2.339.552.694 1.469.891 2.259.59l30.452-8.142a12.121 12.121 0 0 0 7.486-5.891l.001-.002a1.228 1.228 0 0 1 1.218-.63c7.069.821 15.189-.177 23.334-3.177 2.317 15.329.998 34.636.108 43.946a5.029 5.029 0 0 0 5.006 5.512h43.045a5.037 5.037 0 0 0 3.903-1.86 5.042 5.042 0 0 0 1.021-4.195Zm-86.143-37.528-21.374 5.714 12.809-10.18a.536.536 0 0 0-.619-.874l-16.395 10.282 9.95-22.267a4.45 4.45 0 0 1 3.934-2.617 18.109 18.109 0 0 0 1.478 5.008c2.623 5.638 7.961 9.462 14.781 11.294.07.017.144.027.213.044-1.075 1.749-2.781 3.062-4.777 3.596Z"/>
    <ellipse cx="704.094" cy="111.871" fill="#121212" rx="4.28" ry="2.634" transform="rotate(-26.555 704.094 111.871)"/>
  </g>
  <defs>
    <clipPath id="a">
      <path fill="#fff" d="M626 49h187v187H626z"/>
    </clipPath>
  </defs>
</svg>
