<svg xmlns="http://www.w3.org/2000/svg" width="68" height="68" fill="none" viewBox="0 0 68 68">
  <path fill="#1E1E1E" d="M0 5a5 5 0 0 1 5-5h58a5 5 0 0 1 5 5v58a5 5 0 0 1-5 5H5a5 5 0 0 1-5-5V5Z"/>
  <g clip-path="url(#a)">
    <path fill="#E6C6C6" d="M49.005 29.052c0-3.274-1.626-6.992-4.35-9.946-2.6-2.822-5.784-4.546-9.098-4.96a1.73 1.73 0 0 1 1.717-1.539V9.333a4.982 4.982 0 0 0-3.365 1.305 4.982 4.982 0 0 0-3.365-1.305v3.274a1.73 1.73 0 0 1 1.72 1.563c-3.25.452-6.365 2.165-8.92 4.936-2.722 2.953-4.348 6.672-4.348 9.946 0 3.294 1.615 6.363 4.547 8.644.66.513 1.369.97 2.119 1.372a10.876 10.876 0 0 0-2.586 7.05c0 .566.076 1.114.217 1.636h.003a3.825 3.825 0 0 0 1.533-.41c.517-.277 1.205-.82 1.205-2.318h3.274c0 2.412-1.096 4.288-3.087 5.284a6.75 6.75 0 0 1-1.114.433 6.27 6.27 0 0 0 4.263 1.67h.265v2.98h-1.637v3.274h4.911v-6.254h2.182v6.254h4.91v-3.274h-1.636v-2.98h.265a6.27 6.27 0 0 0 4.264-1.67 6.657 6.657 0 0 1-1.114-.433c-1.991-.996-3.087-2.872-3.087-5.283h3.273c0 1.498.688 2.04 1.205 2.317a3.823 3.823 0 0 0 1.534.41h.003c.14-.522.217-1.07.217-1.636 0-2.685-.974-5.146-2.586-7.05.75-.401 1.46-.86 2.118-1.372 2.933-2.28 4.547-5.35 4.547-8.644Zm-21.006.697a1.637 1.637 0 1 1 0-3.273 1.637 1.637 0 0 1 0 3.273ZM34 34.523l-3.273-1.636S32.795 30.43 34 30.43c1.206 0 3.274 2.456 3.274 2.456L34 34.523Zm6.002-4.774a1.637 1.637 0 1 1 0-3.273 1.637 1.637 0 0 1 0 3.273Z"/>
  </g>
  <path fill="#9E2A2B" d="M12.69 63.27c-1.68 0-3.18-.25-4.5-.75-1.3-.5-2.32-1.2-3.06-2.1a4.81 4.81 0 0 1-1.08-3.09c0-1 .33-1.72.99-2.16.68-.44 1.78-.66 3.3-.66-.06.38-.09.86-.09 1.44 0 1.16.37 2.04 1.11 2.64.76.58 1.87.87 3.33.87 2.9 0 4.35-.87 4.35-2.61 0-1.8-1.24-2.7-3.72-2.7h-.96c-.56 0-1.01-.17-1.35-.51-.34-.34-.51-.79-.51-1.35s.17-1.01.51-1.35c.34-.34.79-.51 1.35-.51h.99c1.04 0 1.81-.2 2.31-.6.52-.42.78-1.05.78-1.89 0-.76-.32-1.35-.96-1.77-.62-.42-1.51-.63-2.67-.63-1.3 0-2.31.23-3.03.69-.7.44-1.05 1.07-1.05 1.89 0 .34.04.79.12 1.35-1.26.04-2.29-.17-3.09-.63-.8-.46-1.2-1.08-1.2-1.86 0-1.02.34-1.93 1.02-2.73.7-.8 1.67-1.42 2.91-1.86 1.26-.44 2.7-.66 4.32-.66s3.04.26 4.26.78c1.22.5 2.16 1.22 2.82 2.16.68.94 1.02 2.03 1.02 3.27 0 1.82-.93 3.27-2.79 4.35 1.22.56 2.09 1.19 2.61 1.89.52.68.78 1.57.78 2.67 0 1.26-.37 2.38-1.11 3.36-.74.96-1.78 1.71-3.12 2.25-1.32.54-2.85.81-4.59.81Z"/>
  <defs>
    <clipPath id="a">
      <path fill="#fff" d="M9.334 9.333h49.333v49.333H9.334z"/>
    </clipPath>
  </defs>
</svg>
