<svg xmlns="http://www.w3.org/2000/svg" width="68" height="68" fill="none" viewBox="0 0 68 68">
  <path fill="#1E1E1E" d="M0 5a5 5 0 0 1 5-5h58a5 5 0 0 1 5 5v58a5 5 0 0 1-5 5H5a5 5 0 0 1-5-5V5Z"/>
  <g clip-path="url(#a)">
    <path fill="#E6C6C6" d="M49.005 29.052c0-3.274-1.626-6.992-4.35-9.946-2.6-2.822-5.784-4.546-9.098-4.96a1.73 1.73 0 0 1 1.717-1.539V9.333a4.982 4.982 0 0 0-3.365 1.305 4.982 4.982 0 0 0-3.365-1.305v3.274a1.73 1.73 0 0 1 1.72 1.563c-3.25.452-6.365 2.165-8.92 4.936-2.722 2.953-4.348 6.672-4.348 9.946 0 3.294 1.615 6.363 4.547 8.644.66.513 1.369.97 2.119 1.372a10.876 10.876 0 0 0-2.586 7.05c0 .566.076 1.114.217 1.636h.003a3.825 3.825 0 0 0 1.533-.41c.517-.277 1.205-.82 1.205-2.318h3.274c0 2.412-1.096 4.288-3.087 5.284a6.75 6.75 0 0 1-1.114.433 6.27 6.27 0 0 0 4.263 1.67h.265v2.98h-1.637v3.274h4.911v-6.254h2.182v6.254h4.91v-3.274h-1.636v-2.98h.265a6.27 6.27 0 0 0 4.264-1.67 6.657 6.657 0 0 1-1.114-.433c-1.991-.996-3.087-2.872-3.087-5.283h3.273c0 1.498.688 2.04 1.205 2.317a3.823 3.823 0 0 0 1.534.41h.003c.14-.522.217-1.07.217-1.636 0-2.685-.974-5.146-2.586-7.05.75-.401 1.46-.86 2.118-1.372 2.933-2.28 4.547-5.35 4.547-8.644Zm-21.006.697a1.637 1.637 0 1 1 0-3.273 1.637 1.637 0 0 1 0 3.273ZM34 34.523l-3.273-1.636S32.795 30.43 34 30.43c1.206 0 3.274 2.456 3.274 2.456L34 34.523Zm6.002-4.774a1.637 1.637 0 1 1 0-3.273 1.637 1.637 0 0 1 0 3.273Z"/>
  </g>
  <path fill="#9E2A2B" d="M13.776 57.496H4.784c-.597 0-1.077-.16-1.44-.48-.363-.32-.544-.757-.544-1.312 0-.576.16-1.056.48-1.44l11.104-13.216c.192-.213.47-.384.832-.512a3.08 3.08 0 0 1 1.184-.224c.619 0 1.12.192 1.504.576.405.384.608.875.608 1.472v11.136h3.68c0 1.387-.235 2.4-.704 3.04-.47.64-1.205.96-2.208.96h-.768v2.912c0 1.003-.384 1.739-1.152 2.208-.747.448-1.941.672-3.584.672v-5.792Zm.32-4v-5.504l1.216-1.632-.256-.192-6.112 7.328h5.152Z"/>
  <defs>
    <clipPath id="a">
      <path fill="#fff" d="M9.334 9.333h49.333v49.333H9.334z"/>
    </clipPath>
  </defs>
</svg>
