<svg xmlns="http://www.w3.org/2000/svg" width="68" height="68" fill="none" viewBox="0 0 68 68">
  <path fill="#1E1E1E" d="M0 5a5 5 0 0 1 5-5h58a5 5 0 0 1 5 5v58a5 5 0 0 1-5 5H5a5 5 0 0 1-5-5V5Z"/>
  <g clip-path="url(#a)">
    <path fill="#E6C6C6" d="M49.005 29.052c0-3.274-1.626-6.992-4.35-9.946-2.6-2.822-5.784-4.546-9.098-4.96a1.73 1.73 0 0 1 1.717-1.539V9.333a4.982 4.982 0 0 0-3.365 1.305 4.982 4.982 0 0 0-3.365-1.305v3.274a1.73 1.73 0 0 1 1.72 1.563c-3.25.452-6.365 2.165-8.92 4.936-2.722 2.953-4.348 6.672-4.348 9.946 0 3.294 1.615 6.363 4.547 8.644.66.513 1.369.97 2.119 1.372a10.876 10.876 0 0 0-2.586 7.05c0 .566.076 1.114.217 1.636h.003a3.825 3.825 0 0 0 1.533-.41c.517-.277 1.205-.82 1.205-2.318h3.274c0 2.412-1.096 4.288-3.087 5.284a6.75 6.75 0 0 1-1.114.433 6.27 6.27 0 0 0 4.263 1.67h.265v2.98h-1.637v3.274h4.911v-6.254h2.182v6.254h4.91v-3.274h-1.636v-2.98h.265a6.27 6.27 0 0 0 4.264-1.67 6.657 6.657 0 0 1-1.114-.433c-1.991-.996-3.087-2.872-3.087-5.283h3.273c0 1.498.688 2.04 1.205 2.317a3.823 3.823 0 0 0 1.534.41h.003c.14-.522.217-1.07.217-1.636 0-2.685-.974-5.146-2.586-7.05.75-.401 1.46-.86 2.118-1.372 2.933-2.28 4.547-5.35 4.547-8.644Zm-21.006.697a1.637 1.637 0 1 1 0-3.273 1.637 1.637 0 0 1 0 3.273ZM34 34.523l-3.273-1.636S32.795 30.43 34 30.43c1.206 0 3.274 2.456 3.274 2.456L34 34.523Zm6.002-4.774a1.637 1.637 0 1 1 0-3.273 1.637 1.637 0 0 1 0 3.273Z"/>
  </g>
  <path fill="#9E2A2B" d="M6.123 65.013c-.62-.003-1.119-.175-1.498-.517-.358-.361-.536-.822-.534-1.382.007-1.58.633-3.007 1.878-4.282 1.245-1.275 3.22-2.477 5.925-3.606 1.202-.495 2.114-.96 2.736-1.398.642-.438 1.094-.906 1.356-1.405.282-.498.424-1.098.427-1.798.004-.94-.323-1.671-.98-2.194-.639-.543-1.537-.816-2.697-.821-1.36-.006-2.371.26-3.034.797-.662.518-.995 1.326-1 2.426-.002.62.046 1.12.144 1.5-.34.06-.65.088-.93.087-.98-.004-1.82-.288-2.517-.85-.697-.584-1.044-1.295-1.041-2.135.004-1.06.368-2.018 1.092-2.875.744-.877 1.756-1.563 3.039-2.058 1.282-.495 2.703-.739 4.263-.732 1.62.007 3.038.302 4.256.888 1.238.565 2.194 1.369 2.87 2.411.676 1.023 1.01 2.215 1.005 3.575-.006 1.48-.572 2.837-1.697 4.073-1.105 1.235-2.76 2.318-4.963 3.25-1.743.732-3.016 1.357-3.818 1.873-.782.517-1.204.995-1.266 1.435l8.76.036c1.08.005 1.889.328 2.426.97.557.623.833 1.554.828 2.794l-15.03-.062Z"/>
  <defs>
    <clipPath id="a">
      <path fill="#fff" d="M9.334 9.333h49.333v49.333H9.334z"/>
    </clipPath>
  </defs>
</svg>
