<svg xmlns="http://www.w3.org/2000/svg" width="38" height="31" fill="none" viewBox="0 0 38 31">
  <path stroke="#C2252C" stroke-linecap="round" stroke-width="4.167" d="M24.378 9.372a8.49 8.49 0 0 1 .047 11.959m6.95-15.56a13.584 13.584 0 0 1 .075 19.133M3.362 18.653a6.371 6.371 0 0 1 0-6.556 2.548 2.548 0 0 1 1.686-1.188l2.875-.575a.765.765 0 0 0 .437-.26l3.513-4.216c2.008-2.41 3.012-3.614 3.908-3.29.896.325.896 1.893.896 5.03v15.555c0 3.136 0 4.704-.896 5.029-.896.324-1.9-.88-3.908-3.29L8.36 20.676a.765.765 0 0 0-.437-.26l-2.875-.575a2.548 2.548 0 0 1-1.686-1.188Z"/>
</svg>
