<svg xmlns="http://www.w3.org/2000/svg" width="47" height="43" fill="none" viewBox="0 0 47 43">
  <path fill="#310708" d="M33.883 29.382c7.074.8 12.577-20.564 11.77-21.41-.727-.76-5.099 5.887-6.158 5.375C38.354 12.8 38.02 1.175 36.618 1.03c-1.32-.136-3.567 11.195-4.737 11.458-1.103.25-4.918-6.395-5.78-5.854-1.066.67.707 21.949 7.782 22.749Zm.252 1.665c-1.819-.086-3.382-1.254-3.693-1.15-.382.128.902 4.186 3.596 4.339 2.695.154 4.15-3.918 3.822-4.078-.295-.147-1.908.975-3.725.89Zm-19.972-9.671c-1.192-.428-2.715-11.958-4.125-11.958-1.326 0-2.4 11.501-3.536 11.883-1.074.361-5.548-5.857-6.35-5.23-.992.775 2.953 21.76 10.073 21.83 7.12.071 10.403-21.744 9.513-22.503-.802-.681-4.47 6.38-5.575 5.978ZM10.805 39.51c-1.82.01-3.443-1.075-3.748-.955-.375.147 1.12 4.132 3.818 4.145 2.698.013 3.94-4.13 3.604-4.272-.303-.132-1.854 1.074-3.674 1.082Z"/>
</svg>
