<svg xmlns="http://www.w3.org/2000/svg" width="45" height="45" fill="none" viewBox="0 0 45 45">
  <g clip-path="url(#a)">
    <path fill="#1B0303" d="M33.883 28.964c7.074.8 12.577-20.564 11.77-21.41-.727-.76-5.099 5.887-6.158 5.376C38.354 12.38 38.02.756 36.618.61c-1.32-.136-3.567 11.195-4.737 11.458-1.103.25-4.918-6.395-5.78-5.853-1.066.669.707 21.948 7.782 22.748Zm.252 1.666c-1.819-.086-3.382-1.254-3.693-1.15-.382.127.902 4.185 3.596 4.338 2.695.154 4.15-3.918 3.822-4.078-.295-.147-1.908.975-3.725.89Zm-19.972-9.671C12.971 20.53 11.448 9 10.038 9c-1.326 0-2.4 11.502-3.536 11.883-1.074.361-5.548-5.857-6.35-5.23-.992.776 2.953 21.761 10.073 21.83 7.12.072 10.403-21.744 9.513-22.503-.802-.681-4.47 6.38-5.575 5.979Zm-3.358 18.133c-1.82.01-3.443-1.075-3.748-.954-.375.146 1.12 4.132 3.818 4.144 2.698.013 3.94-4.13 3.604-4.272-.303-.132-1.854 1.074-3.674 1.082Z"/>
  </g>
  <defs>
    <clipPath id="a">
      <path fill="#fff" d="M0 0h45v45H0z"/>
    </clipPath>
  </defs>
</svg>
