<svg xmlns="http://www.w3.org/2000/svg" width="45" height="45" fill="none" viewBox="0 0 45 45">
  <g clip-path="url(#a)">
    <path fill="#FF4E50" d="M35.344 29.01c7.12.07 10.403-21.745 9.513-22.504-.8-.681-4.468 6.379-5.574 5.979C38.092 12.056 36.568.526 35.16.526c-1.327 0-2.4 11.502-3.537 11.883-1.073.361-5.548-5.857-6.35-5.23-.992.775 2.953 21.76 10.072 21.831Zm-.248 1.509c-1.82.009-3.442-1.076-3.747-.955-.375.146 1.119 4.132 3.817 4.144 2.7.013 3.94-4.13 3.605-4.272-.303-.132-1.855 1.073-3.675 1.083ZM14.164 23.25c-1.193-.428-2.716-11.958-4.125-11.958-1.327 0-2.4 11.501-3.537 11.883-1.073.361-5.548-5.857-6.35-5.23-.992.776 2.953 21.76 10.073 21.83 7.12.071 10.403-21.744 9.513-22.503-.802-.681-4.469 6.38-5.574 5.978ZM9.977 41.284c-1.82.01-3.443-1.075-3.748-.954-.374.146 1.12 4.131 3.818 4.144 2.699.013 3.94-4.13 3.604-4.272-.302-.132-1.854 1.074-3.674 1.082Z"/>
  </g>
  <defs>
    <clipPath id="a">
      <path fill="#fff" d="M0 0h45v45H0z"/>
    </clipPath>
  </defs>
</svg>
