<svg xmlns="http://www.w3.org/2000/svg" width="115" height="103" fill="none" viewBox="0 0 115 103">
  <path fill="#540B0E" d="M0 49C0 21.938 21.938 0 49 0s49 21.938 49 49-21.938 49-49 49S0 76.062 0 49Z"/>
  <g clip-path="url(#a)">
    <path fill="#9E2A2B" d="M70.63 41.39c0-4.72-2.343-10.078-6.267-14.335-3.75-4.067-8.338-6.552-13.114-7.148a2.493 2.493 0 0 1 2.475-2.218V12.97a7.18 7.18 0 0 0-4.85 1.88 7.18 7.18 0 0 0-4.849-1.88v4.718c1.293 0 2.358.99 2.478 2.252-4.682.652-9.172 3.12-12.854 7.114-3.924 4.256-6.267 9.615-6.267 14.334 0 4.747 2.328 9.17 6.554 12.457.95.74 1.972 1.4 3.052 1.978a15.674 15.674 0 0 0-3.726 10.16c0 .815.11 1.606.313 2.358h.004c.08-.002 1.19-.045 2.21-.59.745-.4 1.737-1.182 1.737-3.341h4.717c0 3.475-1.58 6.18-4.449 7.614a9.615 9.615 0 0 1-1.605.625 9.037 9.037 0 0 0 6.144 2.406h.382v4.295h-2.359v4.718h7.077v-9.013h3.145v9.013h7.077V79.35h-2.358v-4.295h.382a9.036 9.036 0 0 0 6.144-2.406 9.604 9.604 0 0 1-1.605-.625c-2.87-1.434-4.45-4.139-4.45-7.614h4.718c0 2.16.992 2.94 1.737 3.34 1.02.547 2.13.59 2.21.592h.004a9.055 9.055 0 0 0 .313-2.36c0-3.868-1.403-7.415-3.726-10.159a21.567 21.567 0 0 0 3.052-1.977c4.226-3.287 6.554-7.711 6.554-12.458Zm-30.273 1.004a2.36 2.36 0 1 1 0-4.718 2.36 2.36 0 0 1 0 4.718Zm8.649 6.88-4.718-2.359s2.98-3.538 4.718-3.538c1.737 0 4.718 3.538 4.718 3.538l-4.718 2.36Zm8.65-6.88a2.36 2.36 0 1 1 0-4.718 2.36 2.36 0 0 1 0 4.718Z"/>
  </g>
  <path fill="#A97A35" fill-rule="evenodd" d="M75.29 60.105 63.071 72.447l12.343 12.217a3.313 3.313 0 0 0 4.66-4.708l-4.304-4.26 23.471-.12a4.969 4.969 0 0 1 .05 9.937l-4.968.025a3.313 3.313 0 0 0 .034 6.625l4.968-.025c6.403-.032 11.568-5.25 11.535-11.653-.033-6.403-5.25-11.567-11.653-11.534l-23.471.12 4.26-4.305a3.313 3.313 0 1 0-4.708-4.66Z" clip-rule="evenodd"/>
  <defs>
    <clipPath id="a">
      <path fill="#fff" d="M13.451 13.45h71.098v71.098H13.451z"/>
    </clipPath>
  </defs>
</svg>
