<!DOCTYPE svg PUBLIC "-//W3C//DTD SVG 1.1//EN" "http://www.w3.org/Graphics/SVG/1.1/DTD/svg11.dtd">
<!-- Uploaded to: SVG Repo, www.svgrepo.com, Transformed by: SVG Repo Mixer Tools -->
<svg fill="#000000" width="800px" height="800px" viewBox="0 0 64 64" data-name="Material Expand" id="Material_Expand" xmlns="http://www.w3.org/2000/svg" stroke="#000000">
<g id="SVGRepo_bgCarrier" stroke-width="0"/>
<g id="SVGRepo_tracerCarrier" stroke-linecap="round" stroke-linejoin="round"/>
<g id="SVGRepo_iconCarrier">
<path d="M32,62A19.021,19.021,0,0,0,51,43V21a19,19,0,0,0-38,0V43A19.021,19.021,0,0,0,32,62Zm0-36a3,3,0,0,1-3-3V19a3,3,0,0,1,6,0v4A3,3,0,0,1,32,26ZM30,6.149V12.3A7.009,7.009,0,0,0,25,19v4a7.009,7.009,0,0,0,5,6.7V34h4v-4.3A7.009,7.009,0,0,0,39,23V19a7.009,7.009,0,0,0-5-6.7V6.149A15.012,15.012,0,0,1,47,21v9.764l-1.919.96A10.939,10.939,0,0,0,39,41.562v.143a7,7,0,0,1-14,0v-.143a10.939,10.939,0,0,0-6.081-9.838L17,30.764V21A15.012,15.012,0,0,1,30,6.149ZM17,35.237l.13.065A6.961,6.961,0,0,1,21,41.562v.143a11,11,0,0,0,22,0v-.143A6.963,6.963,0,0,1,46.87,35.3l.13-.065V43a15,15,0,0,1-30,0Z"/>
<rect height="4" width="4" x="30" y="38"/>
</g>
</svg>