<svg xmlns="http://www.w3.org/2000/svg" width="467" height="110" fill="none" viewBox="0 0 467 110">
  <g clip-path="url(#a)">
    <g clip-path="url(#b)">
      <g clip-path="url(#c)">
        <g clip-path="url(#d)">
          <g clip-path="url(#e)">
            <g clip-path="url(#f)">
              <path fill="#fff" d="M104.38 27.504c3.902 0 7.28.489 10.132 1.468 2.844.986 5.153 2.877 6.93 5.672 1.767 2.803 2.65 6.763 2.65 11.88 0 7.229-1.736 12.271-5.207 15.126-3.48 2.855-8.024 4.282-13.63 4.282H94.02V27.504h10.36Zm1.279 5.283h-3.095v27.862h3.162c2.018 0 3.714-.39 5.086-1.168 1.363-.779 2.44-2.206 3.229-4.282.781-2.076 1.171-4.968 1.171-8.676 0-3.782-.417-6.673-1.252-8.675-.825-2.002-1.919-3.348-3.283-4.038-1.372-.682-3.045-1.023-5.018-1.023Zm49.044 3.726v29.419h-7.199l-.404-3.726c-1.121 1.52-2.377 2.658-3.767 3.415-1.39.763-3.005 1.145-4.844 1.145-2.601 0-4.655-.76-6.162-2.28-1.498-1.52-2.247-3.504-2.247-5.95V36.513h8.275v21.633c0 2.299.941 3.448 2.825 3.448 1.077 0 2.041-.345 2.893-1.034.852-.682 1.637-1.654 2.355-2.914V36.513h8.275Zm20.451-.779c1.929 0 3.678.267 5.248.801 1.57.541 3.072 1.387 4.507 2.536l-3.565 3.893c-.987-.667-1.92-1.16-2.799-1.48-.87-.31-1.821-.467-2.852-.467-2.019 0-3.544.786-4.575 2.358-1.032 1.58-1.548 4.242-1.548 7.986 0 3.634.525 6.192 1.575 7.675 1.058 1.483 2.574 2.225 4.548 2.225.986 0 1.883-.149 2.691-.445.807-.297 1.749-.76 2.825-1.39l3.7 3.948c-2.87 2.261-6.077 3.392-9.62 3.392-4.575 0-8.131-1.29-10.67-3.87-2.53-2.573-3.794-6.381-3.794-11.423 0-3.263.583-6.08 1.749-8.453 1.166-2.373 2.834-4.183 5.005-5.428 2.18-1.239 4.705-1.858 7.575-1.858ZM189 24.723l8.275-.723v41.932H189V24.723Zm18.164 11.79h8.073l-9.418 13.013 10.225 16.406h-8.88l-9.553-16.072 9.553-13.347Zm22.201-.779c4.216 0 7.782 1.15 10.697 3.448l-3.162 3.726c-1.256-.741-2.444-1.297-3.566-1.668a10.86 10.86 0 0 0-3.431-.556c-1.3 0-2.319.285-3.054.856-.745.579-1.117 1.368-1.117 2.37 0 1 .417 1.805 1.251 2.413.826.615 2.494 1.331 5.006 2.147 3.094 1 5.382 2.187 6.862 3.559 1.48 1.372 2.22 3.207 2.22 5.505 0 2.855-1.211 5.106-3.633 6.752-2.422 1.653-5.494 2.48-9.217 2.48-2.422 0-4.651-.363-6.687-1.09-2.045-.719-3.83-1.727-5.355-3.025l4.037-3.67c2.511 1.816 5.068 2.724 7.669 2.724 1.48 0 2.646-.322 3.498-.967.852-.653 1.278-1.554 1.278-2.703 0-.853-.179-1.546-.538-2.08-.359-.541-.986-1.045-1.883-1.513-.897-.46-2.243-.967-4.037-1.523-3.095-1.001-5.301-2.17-6.62-3.504-1.327-1.335-1.991-3.04-1.991-5.116 0-2.484 1.067-4.535 3.202-6.151 2.126-1.61 4.983-2.414 8.571-2.414Zm27.448-8.23c3.902 0 7.275.489 10.119 1.468 2.852.986 5.162 2.877 6.929 5.672 1.776 2.803 2.664 6.763 2.664 11.88 0 7.229-1.74 12.271-5.22 15.126-3.472 2.855-8.011 4.282-13.617 4.282h-11.235V27.504h10.36Zm1.279 5.283h-3.095v27.862h3.162c2.018 0 3.709-.39 5.073-1.168 1.372-.779 2.448-2.206 3.229-4.282.789-2.076 1.184-4.968 1.184-8.676 0-3.782-.417-6.673-1.252-8.675-.825-2.002-1.924-3.348-3.296-4.038-1.363-.682-3.032-1.023-5.005-1.023Zm49.044 3.726v29.419h-7.199l-.404-3.726c-1.121 1.52-2.377 2.658-3.767 3.415-1.39.763-3.005 1.145-4.844 1.145-2.601 0-4.655-.76-6.162-2.28-1.498-1.52-2.247-3.504-2.247-5.95V36.513h8.275v21.633c0 2.299.941 3.448 2.825 3.448 1.077 0 2.041-.345 2.893-1.034.852-.682 1.637-1.654 2.355-2.914V36.513h8.275Zm24.273-.779c2.556 0 4.574.76 6.054 2.28 1.48 1.52 2.22 3.56 2.22 6.118v21.8h-8.274V44.91c0-1.408-.234-2.42-.7-3.036-.476-.608-1.162-.912-2.059-.912-1.883 0-3.745 1.464-5.584 4.393v20.577h-8.274v-29.42h7.198l.605 3.838c1.211-1.557 2.503-2.718 3.876-3.481 1.363-.757 3.009-1.135 4.938-1.135Zm39.894-3.003 2.086 5.283c-.942.371-2.073.63-3.391.779-1.328.148-2.978.222-4.952.222 1.884.742 3.288 1.732 4.212 2.97.915 1.246 1.372 2.777 1.372 4.594 0 2.966-1.099 5.357-3.296 7.174-2.198 1.816-5.181 2.725-8.948 2.725-1.121 0-2.265-.148-3.431-.445-.807.556-1.211 1.316-1.211 2.28 0 .742.247 1.298.74 1.668.493.371 1.413.557 2.758.557h3.768c3.588 0 6.436.767 8.544 2.302 2.108 1.542 3.162 3.5 3.162 5.873 0 2.817-1.31 5.072-3.929 6.762-2.628 1.683-6.364 2.525-11.208 2.525-5.113 0-8.688-.779-10.724-2.336-2.045-1.557-3.068-3.837-3.068-6.84h7.333c0 1.594.449 2.725 1.346 3.392.897.668 2.624 1.001 5.18 1.001 2.467 0 4.216-.352 5.248-1.056 1.031-.705 1.547-1.706 1.547-3.003 0-1.261-.426-2.188-1.278-2.781-.853-.593-2.176-.89-3.97-.89h-2.556c-3.409 0-5.898-.5-7.468-1.501-1.569-1.001-2.354-2.373-2.354-4.116 0-1 .327-1.957.982-2.87.646-.904 1.529-1.709 2.651-2.413-1.839-.964-3.185-2.113-4.037-3.448-.852-1.335-1.278-2.966-1.278-4.894 0-3.225 1.166-5.776 3.498-7.652 2.332-1.869 5.472-2.803 9.419-2.803 2.915 0 5.328-.26 7.239-.779 1.901-.519 3.906-1.279 6.014-2.28Zm-13.253 7.62c-1.57 0-2.759.463-3.566 1.39-.807.926-1.211 2.39-1.211 4.393 0 1.89.404 3.344 1.211 4.36.807 1.023 1.973 1.535 3.498 1.535 1.57 0 2.736-.456 3.499-1.368.762-.905 1.143-2.432 1.143-4.583 0-2.002-.367-3.459-1.103-4.37-.744-.905-1.902-1.358-3.471-1.358Zm44.402 10.176c0 .334-.068 1.28-.202 2.837h-18.367c.18 3.04.817 5.16 1.911 6.362 1.103 1.208 2.664 1.813 4.683 1.813 1.39 0 2.646-.197 3.767-.59 1.121-.386 2.332-1.005 3.633-1.857l3.431 3.893c-3.14 2.52-6.907 3.781-11.302 3.781-4.665 0-8.244-1.335-10.738-4.004-2.484-2.67-3.727-6.432-3.727-11.29 0-4.856 1.189-8.693 3.566-11.511 2.377-2.818 5.741-4.227 10.091-4.227 4.171 0 7.423 1.25 9.755 3.749 2.332 2.506 3.499 6.187 3.499 11.044Zm-8.074-1.613v-.389c0-2.78-.403-4.812-1.21-6.095-.808-1.275-2.108-1.913-3.902-1.913-1.66 0-2.929.62-3.808 1.857-.87 1.246-1.395 3.426-1.575 6.54h10.495Zm26.507-13.18c4.485 0 7.97 1.298 10.455 3.893 2.493 2.595 3.74 6.451 3.74 11.568 0 4.894-1.256 8.712-3.767 11.456-2.512 2.743-5.988 4.115-10.428 4.115s-7.916-1.346-10.428-4.037c-2.511-2.684-3.767-6.53-3.767-11.534 0-4.968 1.256-8.787 3.767-11.457 2.512-2.669 5.988-4.004 10.428-4.004Zm0 5.172c-1.929 0-3.341.786-4.238 2.358-.897 1.58-1.346 4.223-1.346 7.93 0 3.745.449 6.403 1.346 7.975.897 1.58 2.309 2.37 4.238 2.37 1.929 0 3.341-.79 4.238-2.37.897-1.572 1.346-4.23 1.346-7.974 0-3.745-.449-6.396-1.346-7.953-.897-1.557-2.309-2.336-4.238-2.336Zm36.921-5.172c2.556 0 4.575.76 6.055 2.28 1.48 1.52 2.22 3.56 2.22 6.118v21.8h-8.275V44.91c0-1.408-.233-2.42-.7-3.036-.475-.608-1.161-.912-2.058-.912-1.884 0-3.745 1.464-5.584 4.393v20.577h-8.275v-29.42h7.198l.606 3.838c1.211-1.557 2.502-2.718 3.875-3.481 1.363-.757 3.009-1.135 4.938-1.135Z"/>
            </g>
          </g>
        </g>
      </g>
    </g>
  </g>
  <path fill="#540B0E" d="M58.433 15.948c0-7.419-17.249-7.088-24.809-7.088-7.56 0-24.808-.33-24.808 7.088C8.816 28.353 0 39.935 0 53.349 0 64.762 13.45 77.97 33.624 77.97c20.175 0 33.625-13.208 33.625-24.622 0-13.413-8.816-24.995-8.816-37.4Z"/>
  <path fill="#9E2A2B" d="M58.276 14.177C56.633 5.317 48.416 0 33.624 0 18.833 0 10.615 5.316 8.972 14.177c-1.643 8.86 9.86 44.3 24.652 44.3 14.791 0 26.296-35.44 24.652-44.3Z"/>
  <path fill="#000" d="M11.473 30.125c1.468 0 2.659-2.38 2.659-5.316s-1.19-5.316-2.659-5.316c-1.468 0-2.658 2.38-2.658 5.316s1.19 5.316 2.659 5.316Zm44.302 0c1.468 0 2.658-2.38 2.658-5.316s-1.19-5.316-2.658-5.316-2.658 2.38-2.658 5.316 1.19 5.316 2.658 5.316Z"/>
  <path fill="#E09F3E" d="M33.626 109.867c-9.304 0-19.494-4.282-19.494-14.177 0-30.858 4.907-50.922 8.254-64.81a1.64 1.64 0 0 1 2.57-.938c2.113 1.566 5.587 3.727 8.668 3.727 3.081 0 6.555-2.161 8.669-3.727a1.639 1.639 0 0 1 2.57.937c3.347 13.888 8.255 33.953 8.255 64.812 0 9.894-10.19 14.176-19.492 14.176Z"/>
  <path fill="#000" d="M26.536 51.39a1.77 1.77 0 0 1-1.772-1.772v-1.773c0-.98.792-1.771 1.772-1.771s1.772.792 1.772 1.772v1.772a1.77 1.77 0 0 1-1.772 1.772Zm14.176 0a1.77 1.77 0 0 1-1.772-1.772v-1.773c0-.98.792-1.771 1.772-1.771s1.772.792 1.772 1.772v1.772a1.77 1.77 0 0 1-1.772 1.772Zm-7.087 47.845c-3.635 0-4.585 7.699-6.07 9.999 1.991.418 4.05.633 6.07.633 2.02 0 4.078-.215 6.068-.632-1.484-2.301-2.433-10-6.068-10Z"/>
  <defs>
    <clipPath id="a">
      <path fill="#fff" d="M94 24h372.101v54H94z"/>
    </clipPath>
    <clipPath id="b">
      <path fill="#fff" d="M94 24h372.101v54H94z"/>
    </clipPath>
    <clipPath id="c">
      <path fill="#fff" d="M94 24h372.101v54H94z"/>
    </clipPath>
    <clipPath id="d">
      <path fill="#fff" d="M94 24h372.101v54H94z"/>
    </clipPath>
    <clipPath id="e">
      <path fill="#fff" d="M94 24h372.101v54H94z"/>
    </clipPath>
    <clipPath id="f">
      <path fill="#fff" d="M94 24h372.101v54H94z"/>
    </clipPath>
  </defs>
</svg>
