<svg xmlns="http://www.w3.org/2000/svg" width="68" height="110" fill="none" viewBox="0 0 68 110">
  <path fill="#540B0E" d="M58.433 15.949c0-7.42-17.249-7.088-24.809-7.088-7.56 0-24.808-.331-24.808 7.088C8.816 28.353 0 39.935 0 53.349 0 64.761 13.45 77.97 33.624 77.97c20.175 0 33.625-13.209 33.625-24.623 0-13.413-8.816-24.995-8.816-37.4Z"/>
  <path fill="#9E2A2B" d="M58.276 14.177C56.633 5.317 48.416 0 33.624 0 18.833 0 10.615 5.316 8.972 14.177c-1.643 8.86 9.86 44.3 24.652 44.3 14.791 0 26.296-35.44 24.652-44.3Z"/>
  <path fill="#030000" d="M11.473 30.125c1.468 0 2.659-2.38 2.659-5.316s-1.19-5.316-2.659-5.316c-1.468 0-2.658 2.38-2.658 5.316s1.19 5.316 2.659 5.316Zm44.302 0c1.468 0 2.658-2.38 2.658-5.316s-1.19-5.316-2.658-5.316-2.658 2.38-2.658 5.316 1.19 5.316 2.658 5.316Z"/>
  <path fill="#E09F3E" d="M33.626 109.867c-9.304 0-19.494-4.282-19.494-14.176 0-30.86 4.907-50.923 8.254-64.811a1.639 1.639 0 0 1 2.57-.938c2.113 1.566 5.587 3.727 8.668 3.727 3.081 0 6.555-2.16 8.669-3.727a1.639 1.639 0 0 1 2.57.938c3.347 13.888 8.255 33.952 8.255 64.811 0 9.894-10.19 14.176-19.492 14.176Z"/>
  <path fill="#312020" d="M26.536 51.39a1.77 1.77 0 0 1-1.772-1.773v-1.772a1.77 1.77 0 1 1 3.544 0v1.772a1.77 1.77 0 0 1-1.772 1.772Zm14.176 0a1.77 1.77 0 0 1-1.772-1.773v-1.772a1.771 1.771 0 1 1 3.544 0v1.772a1.77 1.77 0 0 1-1.772 1.772Z"/>
  <path fill="#000" d="M33.625 99.235c-3.635 0-4.585 7.699-6.07 10 1.991.417 4.05.633 6.07.633 2.02 0 4.078-.216 6.068-.633-1.484-2.3-2.433-10-6.068-10Z"/>
</svg>
