<svg xmlns="http://www.w3.org/2000/svg" width="55" height="65" fill="none" viewBox="0 0 55 65">
  <path fill="#D9D9D9" stroke="#D9D9D9" stroke-width="2" d="M27.33 1C17.224 1 8.98 9.245 8.98 19.351c0 9.442 7.58 26.73 18.351 26.73 10.772 0 18.351-17.421 18.351-26.73C45.681 9.245 37.437 1 27.331 1Zm0 39.76c-6.516 0-13.032-13.696-13.032-21.542 0-7.18 5.851-13.032 13.032-13.032s13.032 5.851 13.032 13.032c0 7.979-6.383 21.543-13.032 21.543Z"/>
  <path fill="#D9D9D9" stroke="#D9D9D9" stroke-width="2" d="m48.075 54.192 4.787-4.787c1.064-1.064 1.064-2.66 0-3.724s-2.66-1.064-3.723 0l-5.852 5.851H11.24l-5.72-5.718c-1.063-1.064-2.66-1.064-3.723 0-1.064 1.064-1.064 2.66 0 3.724l4.787 4.654-4.787 4.787c-1.064 1.064-1.064 2.66 0 3.724.532.531 1.197.797 1.862.797.664 0 1.33-.266 1.861-.664l5.984-5.984h31.782l5.851 5.85c.532.532 1.197.798 1.862.798s1.33-.266 1.862-.797c1.064-1.064 1.064-2.66 0-3.724l-4.787-4.787ZM22.01 19.351a2.667 2.667 0 0 0-2.659 2.66v1.33A2.667 2.667 0 0 0 22.011 26c1.462 0 2.66-1.064 2.66-2.66v-1.33a2.667 2.667 0 0 0-2.66-2.659Zm11.437 0a2.667 2.667 0 0 0-2.66 2.66v1.33A2.667 2.667 0 0 0 33.448 26c1.463 0 2.527-1.064 2.66-2.66v-1.33a2.667 2.667 0 0 0-2.66-2.659Z"/>
</svg>
