<svg xmlns="http://www.w3.org/2000/svg" width="70" height="70" fill="none" viewBox="0 0 70 70">
  <path fill="#D9D9D9" fill-rule="evenodd" stroke="#D9D9D9" stroke-width="2.32" d="M32.614 22.035c-3.839-2.267-8.162.816-8.162 4.926v16.107c0 4.11 4.323 7.193 8.162 4.926l13.64-8.053c3.68-2.172 3.68-7.68 0-9.853l-13.64-8.053Zm-3.828 4.926c0-.573.278-.974.605-1.18a.933.933 0 0 1 1.02-.013l13.64 8.053c.383.226.629.658.629 1.194 0 .535-.246.967-.63 1.193l-13.64 8.054a.934.934 0 0 1-1.018-.015c-.328-.204-.606-.606-.606-1.18V26.962Z" clip-rule="evenodd"/>
  <path fill="#D9D9D9" fill-rule="evenodd" stroke="#D9D9D9" stroke-width="2.32" d="M35.288 3.95c-17.156 0-31.064 13.908-31.064 31.065 0 17.156 13.908 31.064 31.064 31.064 17.157 0 31.065-13.908 31.065-31.064 0-17.157-13.908-31.065-31.065-31.065ZM8.558 35.015c0-14.763 11.968-26.73 26.73-26.73 14.763 0 26.73 11.967 26.73 26.73 0 14.762-11.968 26.73-26.73 26.73s-26.73-11.968-26.73-26.73Z" clip-rule="evenodd"/>
</svg>
