<svg xmlns="http://www.w3.org/2000/svg" width="219" height="94" fill="none" viewBox="0 0 219 94">
  <g clip-path="url(#a)">
    <g clip-path="url(#b)">
      <g clip-path="url(#c)">
        <g clip-path="url(#d)">
          <g clip-path="url(#e)">
            <path fill="#fff" d="M17.132 3.219c3.5 0 6.528.45 9.086 1.349 2.55.906 4.622 2.643 6.215 5.211 1.584 2.575 2.377 6.213 2.377 10.914 0 6.642-1.557 11.274-4.67 13.897-3.121 2.623-7.196 3.934-12.224 3.934H7.84V3.219h9.292Zm1.146 4.854h-2.775V33.67h2.835c1.81 0 3.33-.358 4.562-1.073 1.223-.715 2.188-2.027 2.896-3.934.7-1.907 1.05-4.564 1.05-7.97 0-3.475-.374-6.132-1.122-7.97-.74-1.84-1.722-3.077-2.945-3.71-1.23-.627-2.731-.94-4.5-.94Zm43.985 3.423v27.028h-6.456l-.362-3.423c-1.006 1.396-2.132 2.442-3.38 3.137-1.246.702-2.694 1.052-4.343 1.052-2.333 0-4.175-.698-5.527-2.094-1.343-1.397-2.015-3.22-2.015-5.467V11.496h7.42V31.37c0 2.112.845 3.168 2.534 3.168.965 0 1.83-.317 2.595-.95.764-.627 1.468-1.52 2.111-2.678V11.496h7.422Zm18.341-.715c1.73 0 3.299.245 4.707.735 1.407.498 2.755 1.274 4.042 2.33l-3.198 3.577c-.885-.613-1.721-1.066-2.51-1.36a7.403 7.403 0 0 0-2.558-.429c-1.81 0-3.178.723-4.103 2.167-.925 1.45-1.387 3.896-1.387 7.337 0 3.338.47 5.688 1.411 7.05.95 1.363 2.31 2.044 4.08 2.044.884 0 1.689-.136 2.413-.409.724-.272 1.568-.698 2.534-1.277l3.318 3.628c-2.574 2.078-5.45 3.116-8.628 3.116-4.103 0-7.292-1.185-9.57-3.556-2.268-2.364-3.402-5.862-3.402-10.494 0-2.998.523-5.586 1.569-7.766 1.046-2.18 2.542-3.842 4.489-4.987 1.954-1.138 4.22-1.706 6.793-1.706ZM93.021.664 100.443 0v38.524h-7.422V.664Zm16.291 10.832h7.24l-8.447 11.956 9.171 15.072h-7.964l-8.568-14.766 8.568-12.262Zm19.911-.715c3.781 0 6.978 1.055 9.593 3.167l-2.836 3.424c-1.126-.682-2.192-1.193-3.198-1.533a9.527 9.527 0 0 0-3.077-.511c-1.166 0-2.079.262-2.739.787-.668.531-1.002 1.257-1.002 2.176 0 .92.375 1.659 1.123 2.218.74.565 2.236 1.223 4.489 1.972 2.775.92 4.826 2.01 6.154 3.27 1.327 1.26 1.991 2.946 1.991 5.058 0 2.623-1.086 4.69-3.258 6.203-2.172 1.519-4.928 2.278-8.266 2.278-2.172 0-4.171-.333-5.997-1.001-1.835-.66-3.436-1.587-4.803-2.78l3.62-3.372c2.252 1.67 4.545 2.504 6.878 2.504 1.328 0 2.373-.296 3.138-.89.764-.599 1.146-1.426 1.146-2.482 0-.784-.161-1.42-.483-1.911-.321-.497-.885-.96-1.689-1.39-.805-.422-2.011-.889-3.62-1.4-2.776-.92-4.755-1.992-5.937-3.219-1.191-1.226-1.786-2.793-1.786-4.7 0-2.282.957-4.166 2.872-5.651 1.906-1.478 4.469-2.217 7.687-2.217Zm24.616-7.562c3.5 0 6.525.45 9.075 1.349 2.558.906 4.629 2.643 6.214 5.211 1.593 2.575 2.39 6.213 2.39 10.914 0 6.642-1.561 11.274-4.682 13.897-3.114 2.623-7.184 3.934-12.212 3.934h-10.076V3.219h9.291Zm1.147 4.854h-2.776V33.67h2.836c1.81 0 3.327-.358 4.549-1.073 1.231-.715 2.197-2.027 2.896-3.934.708-1.907 1.062-4.564 1.062-7.97 0-3.475-.374-6.132-1.122-7.97-.74-1.84-1.726-3.077-2.956-3.71-1.223-.627-2.719-.94-4.489-.94Zm43.984 3.423v27.028h-6.456l-.362-3.423c-1.005 1.396-2.132 2.442-3.379 3.137-1.246.702-2.695 1.052-4.344 1.052-2.333 0-4.175-.698-5.526-2.094-1.344-1.397-2.016-3.22-2.016-5.467V11.496h7.422V31.37c0 2.112.844 3.168 2.534 3.168.965 0 1.83-.317 2.594-.95.764-.627 1.468-1.52 2.112-2.678V11.496h7.421Zm21.769-.715c2.293 0 4.103.698 5.43 2.094 1.328 1.397 1.991 3.27 1.991 5.62v20.029h-7.421V19.211c0-1.294-.209-2.224-.627-2.79-.427-.558-1.042-.838-1.847-.838-1.689 0-3.358 1.346-5.008 4.037v18.904h-7.421V11.496h6.456l.543 3.525c1.086-1.43 2.245-2.496 3.475-3.198 1.223-.695 2.699-1.042 4.429-1.042Zm35.779-2.76 1.87 4.854c-.844.341-1.858.58-3.041.716-1.19.136-2.67.204-4.44.204 1.689.681 2.948 1.59 3.777 2.728.82 1.145 1.231 2.552 1.231 4.22 0 2.726-.986 4.923-2.957 6.592-1.971 1.669-4.646 2.503-8.024 2.503a12.18 12.18 0 0 1-3.078-.409c-.724.511-1.086 1.21-1.086 2.095 0 .681.222 1.192.664 1.533.443.34 1.267.511 2.474.511h3.379c3.217 0 5.772.705 7.662 2.115 1.891 1.417 2.836 3.216 2.836 5.396 0 2.588-1.175 4.66-3.524 6.212-2.357 1.547-5.707 2.32-10.052 2.32-4.585 0-7.791-.715-9.617-2.146-1.834-1.43-2.751-3.525-2.751-6.284h6.576c0 1.465.403 2.503 1.207 3.117.804.613 2.353.92 4.646.92 2.212 0 3.781-.325 4.706-.972.925-.647 1.388-1.567 1.388-2.759 0-1.158-.382-2.01-1.147-2.554-.764-.545-1.951-.818-3.559-.818h-2.293c-3.057 0-5.29-.46-6.697-1.38-1.408-.919-2.112-2.18-2.112-3.78 0-.92.293-1.799.881-2.636.579-.832 1.371-1.57 2.377-2.218-1.649-.886-2.856-1.941-3.62-3.168-.764-1.226-1.147-2.725-1.147-4.496 0-2.963 1.046-5.307 3.138-7.03 2.092-1.717 4.907-2.575 8.447-2.575 2.614 0 4.778-.239 6.492-.716 1.705-.476 3.503-1.175 5.394-2.094Zm-11.886 7c-1.408 0-2.474.426-3.198 1.278-.724.851-1.086 2.197-1.086 4.036 0 1.737.362 3.072 1.086 4.006.724.94 1.77 1.41 3.137 1.41 1.408 0 2.454-.42 3.138-1.257.684-.831 1.026-2.235 1.026-4.21 0-1.84-.33-3.178-.99-4.016-.668-.831-1.705-1.247-3.113-1.247Zm39.821 9.35c0 .307-.06 1.175-.181 2.606h-16.471c.16 2.793.732 4.741 1.713 5.845.99 1.11 2.389 1.666 4.199 1.666 1.247 0 2.374-.18 3.379-.542 1.006-.354 2.092-.923 3.258-1.706l3.077 3.576c-2.815 2.316-6.194 3.474-10.136 3.474-4.183 0-7.393-1.226-9.629-3.678-2.229-2.453-3.343-5.91-3.343-10.372s1.066-7.988 3.198-10.576c2.132-2.59 5.148-3.883 9.05-3.883 3.741 0 6.657 1.147 8.749 3.443 2.091 2.303 3.137 5.685 3.137 10.147Zm-7.24-1.481v-.358c0-2.555-.362-4.421-1.086-5.6-.724-1.172-1.891-1.757-3.5-1.757-1.488 0-2.626.568-3.415 1.706-.78 1.145-1.251 3.147-1.411 6.009h9.412Zm23.772-12.11c4.022 0 7.148 1.193 9.376 3.577 2.236 2.384 3.355 5.927 3.355 10.627 0 4.496-1.127 8.005-3.379 10.526-2.253 2.52-5.37 3.78-9.352 3.78s-7.1-1.236-9.352-3.709c-2.253-2.466-3.379-5.998-3.379-10.597 0-4.564 1.126-8.072 3.379-10.525 2.252-2.452 5.37-3.678 9.352-3.678Zm0 4.752c-1.73 0-2.997.722-3.801 2.166-.805 1.452-1.207 3.88-1.207 7.286 0 3.44.402 5.883 1.207 7.327.804 1.451 2.071 2.177 3.801 2.177s2.997-.726 3.801-2.177c.805-1.444 1.207-3.886 1.207-7.327 0-3.44-.402-5.875-1.207-7.306-.804-1.43-2.071-2.146-3.801-2.146Zm33.112-4.751c2.293 0 4.103.698 5.43 2.094 1.327 1.397 1.991 3.27 1.991 5.62v20.029h-7.421V19.211c0-1.294-.209-2.224-.628-2.79-.426-.558-1.041-.838-1.846-.838-1.689 0-3.358 1.346-5.008 4.037v18.904h-7.421V11.496h6.456l.543 3.525c1.086-1.43 2.245-2.496 3.475-3.198 1.223-.695 2.699-1.042 4.429-1.042Z"/>
          </g>
        </g>
      </g>
    </g>
  </g>
  <g clip-path="url(#f)">
    <g clip-path="url(#g)">
      <g clip-path="url(#h)">
        <g clip-path="url(#i)">
          <g clip-path="url(#j)">
            <path fill="#fff" d="M-123.654 47.608c3.499 0 6.528.45 9.086 1.349 2.55.906 4.622 2.643 6.215 5.211 1.585 2.575 2.377 6.213 2.377 10.914 0 6.642-1.557 11.274-4.67 13.897-3.121 2.623-7.196 3.934-12.224 3.934h-10.076V47.608h9.292Zm1.146 4.854h-2.775v25.597h2.836c1.81 0 3.33-.358 4.561-1.073 1.223-.715 2.188-2.027 2.896-3.934.7-1.908 1.05-4.564 1.05-7.97 0-3.475-.374-6.132-1.122-7.971-.741-1.84-1.722-3.076-2.945-3.71-1.231-.626-2.731-.94-4.501-.94Zm43.985 3.423v27.028h-6.456l-.362-3.423c-1.006 1.396-2.132 2.442-3.38 3.137-1.246.701-2.694 1.052-4.343 1.052-2.333 0-4.175-.698-5.527-2.094-1.343-1.397-2.015-3.22-2.015-5.467V55.885h7.421V75.76c0 2.112.845 3.168 2.534 3.168.966 0 1.83-.317 2.595-.95.764-.627 1.468-1.52 2.111-2.678V55.885h7.422Zm18.341-.715c1.73 0 3.299.245 4.707.735 1.407.498 2.755 1.274 4.042 2.33l-3.198 3.577c-.885-.613-1.721-1.067-2.51-1.36-.78-.286-1.633-.429-2.558-.429-1.81 0-3.178.722-4.103 2.167-.925 1.45-1.387 3.896-1.387 7.337 0 3.338.47 5.688 1.411 7.05.95 1.363 2.31 2.044 4.08 2.044.884 0 1.689-.136 2.413-.409.724-.272 1.568-.698 2.534-1.277l3.318 3.628c-2.574 2.077-5.45 3.116-8.628 3.116-4.103 0-7.292-1.185-9.569-3.556-2.269-2.364-3.403-5.862-3.403-10.494 0-2.998.523-5.586 1.569-7.766 1.046-2.18 2.542-3.843 4.489-4.987 1.955-1.138 4.22-1.706 6.793-1.706Zm12.418-10.117 7.42-.664v38.524h-7.42v-37.86Zm16.29 10.832h7.24L-32.68 67.84l9.171 15.072h-7.964l-8.568-14.766 8.568-12.262Zm19.91-.715c3.782 0 6.98 1.055 9.594 3.167l-2.836 3.423c-1.126-.68-2.192-1.192-3.198-1.532a9.53 9.53 0 0 0-3.077-.511c-1.166 0-2.08.262-2.739.787-.668.531-1.001 1.257-1.001 2.176 0 .92.374 1.659 1.122 2.218.74.565 2.236 1.222 4.489 1.972 2.775.92 4.827 2.01 6.154 3.27 1.327 1.26 1.991 2.946 1.991 5.058 0 2.623-1.086 4.69-3.258 6.203-2.172 1.519-4.927 2.278-8.266 2.278-2.172 0-4.171-.334-5.997-1.001-1.835-.66-3.435-1.587-4.803-2.78l3.62-3.372c2.253 1.67 4.545 2.504 6.878 2.504 1.328 0 2.373-.296 3.138-.89.764-.599 1.146-1.426 1.146-2.482 0-.784-.16-1.42-.483-1.911-.321-.498-.885-.96-1.689-1.39-.805-.422-2.011-.889-3.62-1.4-2.775-.92-4.755-1.992-5.937-3.219-1.19-1.226-1.786-2.793-1.786-4.7 0-2.282.957-4.166 2.872-5.651 1.907-1.478 4.469-2.218 7.687-2.218Zm24.617-7.562c3.5 0 6.525.45 9.075 1.349 2.558.906 4.63 2.643 6.214 5.211 1.593 2.575 2.39 6.213 2.39 10.914 0 6.642-1.561 11.274-4.682 13.897-3.114 2.623-7.184 3.934-12.212 3.934H3.762V47.608h9.291Zm1.147 4.854h-2.776v25.597h2.836c1.81 0 3.327-.358 4.55-1.073 1.23-.715 2.196-2.027 2.896-3.934.707-1.908 1.061-4.564 1.061-7.97 0-3.475-.374-6.132-1.122-7.971-.74-1.84-1.725-3.076-2.956-3.71-1.223-.626-2.72-.94-4.49-.94Zm43.984 3.423v27.028h-6.456l-.362-3.423c-1.005 1.396-2.132 2.442-3.378 3.137-1.247.701-2.695 1.052-4.345 1.052-2.333 0-4.175-.698-5.526-2.094-1.344-1.397-2.015-3.22-2.015-5.467V55.885h7.42V75.76c0 2.112.845 3.168 2.535 3.168.965 0 1.83-.317 2.594-.95.764-.627 1.468-1.52 2.112-2.678V55.885h7.421Zm21.77-.715c2.292 0 4.102.698 5.43 2.094 1.327 1.397 1.99 3.27 1.99 5.62v20.029h-7.42V63.6c0-1.294-.21-2.224-.628-2.79-.427-.559-1.042-.838-1.847-.838-1.689 0-3.358 1.346-5.007 4.037v18.904H65.05V55.885h6.456l.543 3.525c1.086-1.43 2.245-2.496 3.476-3.198 1.222-.695 2.699-1.043 4.428-1.043Zm35.778-2.76 1.87 4.854c-.844.34-1.858.58-3.041.716-1.19.136-2.67.204-4.44.204 1.689.681 2.948 1.59 3.777 2.728.82 1.145 1.231 2.552 1.231 4.22 0 2.725-.986 4.922-2.957 6.592-1.971 1.669-4.646 2.503-8.024 2.503-1.006 0-2.032-.136-3.077-.409-.725.511-1.087 1.21-1.087 2.095 0 .681.222 1.192.664 1.533.443.34 1.267.51 2.474.51h3.379c3.218 0 5.772.706 7.662 2.116 1.891 1.417 2.836 3.216 2.836 5.395 0 2.59-1.174 4.66-3.524 6.213-2.357 1.547-5.707 2.32-10.051 2.32-4.586 0-7.792-.715-9.618-2.146-1.834-1.43-2.751-3.525-2.751-6.284h6.576c0 1.464.403 2.503 1.207 3.116.805.613 2.353.92 4.646.92 2.212 0 3.781-.323 4.706-.97.925-.648 1.388-1.568 1.388-2.76 0-1.158-.382-2.01-1.147-2.554-.764-.545-1.95-.818-3.559-.818h-2.293c-3.057 0-5.29-.46-6.697-1.38-1.408-.919-2.112-2.18-2.112-3.78 0-.92.294-1.799.88-2.637.58-.83 1.372-1.57 2.378-2.217-1.65-.886-2.856-1.942-3.62-3.168-.764-1.226-1.146-2.725-1.146-4.496 0-2.963 1.045-5.307 3.137-7.03 2.092-1.717 4.907-2.575 8.447-2.575 2.614 0 4.778-.239 6.492-.716 1.705-.477 3.503-1.175 5.394-2.095Zm-11.886 7c-1.408 0-2.474.426-3.198 1.278-.724.851-1.086 2.197-1.086 4.036 0 1.737.362 3.072 1.086 4.005.724.94 1.77 1.41 3.138 1.41 1.407 0 2.453-.418 3.137-1.256.684-.831 1.026-2.235 1.026-4.21 0-1.84-.33-3.178-.99-4.016-.667-.831-1.705-1.247-3.113-1.247Zm39.821 9.35c0 .307-.06 1.175-.181 2.606h-16.471c.161 2.793.732 4.741 1.713 5.845.99 1.11 2.389 1.666 4.2 1.666 1.246 0 2.373-.181 3.378-.542 1.006-.354 2.092-.923 3.258-1.706l3.078 3.576c-2.816 2.316-6.195 3.474-10.137 3.474-4.183 0-7.393-1.226-9.629-3.678-2.229-2.453-3.343-5.91-3.343-10.372s1.066-7.988 3.198-10.576c2.132-2.59 5.148-3.883 9.05-3.883 3.741 0 6.657 1.147 8.749 3.443 2.091 2.303 3.137 5.685 3.137 10.147Zm-7.24-1.482v-.357c0-2.555-.362-4.421-1.086-5.6-.724-1.172-1.891-1.758-3.5-1.758-1.488 0-2.626.57-3.414 1.707-.781 1.144-1.251 3.147-1.412 6.008h9.412Zm23.772-12.109c4.022 0 7.148 1.193 9.376 3.577 2.237 2.384 3.355 5.927 3.355 10.627 0 4.496-1.126 8.005-3.379 10.525-2.253 2.521-5.37 3.781-9.352 3.781s-7.099-1.236-9.352-3.71c-2.252-2.465-3.379-5.997-3.379-10.596 0-4.564 1.127-8.072 3.379-10.525 2.253-2.452 5.37-3.678 9.352-3.678Zm0 4.752c-1.73 0-2.997.722-3.801 2.166-.805 1.451-1.207 3.88-1.207 7.286 0 3.44.402 5.883 1.207 7.327.804 1.451 2.071 2.177 3.801 2.177s2.997-.726 3.801-2.177c.805-1.444 1.207-3.886 1.207-7.327 0-3.44-.402-5.875-1.207-7.306-.804-1.43-2.071-2.146-3.801-2.146Zm33.112-4.752c2.293 0 4.103.699 5.43 2.095 1.328 1.397 1.991 3.27 1.991 5.62v20.029h-7.421V63.6c0-1.294-.209-2.224-.627-2.79-.427-.559-1.042-.838-1.847-.838-1.689 0-3.358 1.346-5.008 4.037v18.904h-7.421V55.885h6.456l.543 3.525c1.086-1.43 2.245-2.496 3.475-3.198 1.223-.695 2.699-1.043 4.429-1.043Z"/>
          </g>
        </g>
      </g>
    </g>
  </g>
  <defs>
    <clipPath id="a">
      <path fill="#fff" d="M0 0h140v50H0z"/>
    </clipPath>
    <clipPath id="b">
      <path fill="#fff" d="M7.822 0h333.714v49.611H7.822z"/>
    </clipPath>
    <clipPath id="c">
      <path fill="#fff" d="M7.822 0h333.714v49.611H7.822z"/>
    </clipPath>
    <clipPath id="d">
      <path fill="#fff" d="M7.822 0h333.714v49.611H7.822z"/>
    </clipPath>
    <clipPath id="e">
      <path fill="#fff" d="M7.822 0h333.714v49.611H7.822z"/>
    </clipPath>
    <clipPath id="f">
      <path fill="#fff" d="M0 44.389h209.875V94H0z"/>
    </clipPath>
    <clipPath id="g">
      <path fill="#fff" d="M-132.964 44.389H200.75V94h-333.714z"/>
    </clipPath>
    <clipPath id="h">
      <path fill="#fff" d="M-132.964 44.389H200.75V94h-333.714z"/>
    </clipPath>
    <clipPath id="i">
      <path fill="#fff" d="M-132.964 44.389H200.75V94h-333.714z"/>
    </clipPath>
    <clipPath id="j">
      <path fill="#fff" d="M-132.964 44.389H200.75V94h-333.714z"/>
    </clipPath>
  </defs>
</svg>
