<svg xmlns="http://www.w3.org/2000/svg" width="230" height="376" fill="none" viewBox="0 0 230 376">
  <path fill="#475F8D" stroke="#4A4455" stroke-width=".006" d="M199.85 54.547c0-25.375-58.994-24.243-84.85-24.243-25.856 0-84.85-1.132-84.85 24.243C30.15 96.971 0 136.584 0 182.459c0 39.037 46 84.212 115 84.212s115-45.175 115-84.212c-.001-45.875-30.15-85.488-30.15-127.912Z"/>
  <path fill="#45879F" stroke="#4A4455" stroke-width=".006" d="M199.313 48.486C193.691 18.182 165.588 0 114.999 0 64.411 0 36.306 18.182 30.685 48.486c-5.62 30.303 33.725 151.517 84.314 151.517 50.588 0 89.934-121.214 84.314-151.517Z"/>
  <path fill="#474658" stroke="#4A4455" stroke-width=".006" d="M39.24 103.031c5.021 0 9.091-8.14 9.091-18.182 0-10.041-4.07-18.181-9.09-18.181-5.021 0-9.092 8.14-9.092 18.181 0 10.042 4.07 18.182 9.091 18.182Zm151.517 0c5.021 0 9.091-8.14 9.091-18.182 0-10.041-4.07-18.181-9.091-18.181-5.02 0-9.09 8.14-9.09 18.181 0 10.042 4.07 18.182 9.09 18.182Z"/>
  <path fill="#FFE14F" stroke="#4A4455" stroke-width=".006" d="M115.005 375.762c-31.819 0-66.671-14.647-66.671-48.486 0-105.542 16.782-174.164 28.23-221.664.942-3.914 5.556-5.604 8.79-3.207 7.228 5.358 19.109 12.748 29.646 12.748 10.538 0 22.419-7.391 29.647-12.748 3.235-2.397 7.847-.707 8.79 3.207 11.449 47.499 28.234 116.122 28.234 221.665.001 33.838-34.852 48.485-66.666 48.485Z"/>
  <path fill="#4A4455" stroke="#4A4455" stroke-width=".006" d="M90.757 175.76a6.057 6.057 0 0 1-6.06-6.061v-6.061c0-3.35 2.71-6.06 6.06-6.06 3.35 0 6.061 2.71 6.061 6.06v6.061c0 3.35-2.71 6.061-6.06 6.061Zm48.487 0a6.057 6.057 0 0 1-6.06-6.061v-6.06a6.056 6.056 0 0 1 6.06-6.061 6.056 6.056 0 0 1 6.061 6.061v6.06c0 3.35-2.71 6.061-6.061 6.061Zm-24.24 163.639c-12.432 0-15.683 26.331-20.76 34.198a101.687 101.687 0 0 0 20.76 2.165 101.7 101.7 0 0 0 20.754-2.164c-5.076-7.867-8.321-34.199-20.754-34.199Z"/>
</svg>
