<svg xmlns="http://www.w3.org/2000/svg" width="285" height="389" fill="none" viewBox="0 0 285 389">
  <path fill="#D9D9D9" d="M285 213.5c0 96.65-63.799 175-142.5 175C63.8 388.5 0 310.15 0 213.5S63.8 0 142.5 0C221.201 0 285 116.85 285 213.5Z"/>
  <g clip-path="url(#a)">
    <path fill="#370A0A" stroke="#000" stroke-width=".002" d="M139.723 264.901c-5.708 0-10.335 4.628-10.335 10.337v54.025h-19.394a8.62 8.62 0 0 0 0 17.239h31.446a8.62 8.62 0 0 0 8.619-8.619v-62.645c0-5.709-4.627-10.337-10.336-10.337Z"/>
    <path fill="#640F10" stroke="#000" stroke-width=".002" d="M183.4 264.901c-5.708 0-10.336 4.628-10.336 10.337v54.025h-19.393a8.62 8.62 0 0 0 0 17.239h31.446a8.62 8.62 0 0 0 8.619-8.619v-62.645c0-5.709-4.627-10.337-10.336-10.337Z"/>
    <path fill="#D93D3F" stroke="#000" stroke-width=".002" d="M248.165 173.403c-5.513 0-9.983 4.47-9.983 9.983v3.153c-10.637-9.548-24.693-15.361-40.111-15.361H156.39v-27.465c0-26.189-19.015-47.925-43.989-52.187l.883-.883a4.606 4.606 0 1 0-6.514-6.514l-3.388 3.387v-1.41a4.606 4.606 0 0 0-9.212 0v5.473c-24.829 4.383-43.696 26.048-43.696 52.134v70.224c0 42.743 34.652 77.395 77.395 77.395h70.202c33.179 0 60.076-26.898 60.076-60.077v-47.868c.001-5.514-4.469-9.984-9.982-9.984Z"/>
    <path fill="#A61F24" stroke="#000" stroke-width=".002" d="M207.233 192.492a2.273 2.273 0 0 1 2.636 1.841l.013-.002c4.414 31.705-17.023 61.478-48.808 67.12-31.784 5.642-62.159-14.933-68.926-46.22l.013-.003a2.273 2.273 0 0 1 1.84-2.635l113.232-20.101Z"/>
    <path fill="#640F10" stroke="#000" stroke-width=".002" d="M82.873 146.332H40.758c-8.784 0-15.904 7.12-15.904 15.904 0 8.782 7.12 15.902 15.904 15.902h42.115c8.782 0 15.904-7.12 15.904-15.902 0-8.784-7.121-15.904-15.904-15.904Z"/>
    <path fill="#3D0A0C" stroke="#000" stroke-width=".002" d="M100.91 138.173a5.563 5.563 0 1 0 0-11.127 5.563 5.563 0 0 0 0 11.127Z"/>
    <path fill="#3D0A0C" stroke="#000" stroke-width=".002" d="M102 135a3 3 0 1 0 0-6 3 3 0 0 0 0 6Z"/>
    <path fill="#640F10" d="M121.5 112.5c1.313 3.821-7.999 9.782-17 12.874-9.001 3.093-16.088-5.548-18-8.5-7.805-12.048 6.492 1.467 15.493-1.626 9.001-3.092 18.194-6.569 19.507-2.748Z"/>
  </g>
  <defs>
    <clipPath id="a">
      <path fill="#fff" d="M9 81.5h265v265H9z"/>
    </clipPath>
  </defs>
</svg>
