<svg xmlns="http://www.w3.org/2000/svg" width="285" height="389" fill="none" viewBox="0 0 285 389">
  <path fill="#D9D9D9" d="M285 213.5c0 96.65-63.799 175-142.5 175C63.8 388.5 0 310.15 0 213.5S63.8 0 142.5 0C221.201 0 285 116.85 285 213.5Z"/>
  <g clip-path="url(#a)">
    <path fill="#D93D3F" stroke="#0E0303" stroke-width=".002" d="M140.723 245.401c-5.708 0-10.335 4.628-10.335 10.337v54.025h-19.394a8.62 8.62 0 0 0 0 17.239h31.446a8.62 8.62 0 0 0 8.619-8.619v-62.645c0-5.709-4.627-10.337-10.336-10.337Z"/>
    <path fill="#581313" stroke="#0E0303" stroke-width=".002" d="M184.4 245.401c-5.708 0-10.336 4.628-10.336 10.337v54.025h-19.393a8.62 8.62 0 0 0 0 17.239h31.446a8.62 8.62 0 0 0 8.619-8.619v-62.645c0-5.709-4.627-10.337-10.336-10.337Z"/>
    <path fill="#0E0303" stroke="#0E0303" stroke-width=".002" d="M249.165 153.903c-5.513 0-9.983 4.47-9.983 9.983v3.153c-10.637-9.548-24.693-15.361-40.111-15.361H157.39v-27.465c0-26.19-19.015-47.925-43.989-52.187l.883-.883a4.606 4.606 0 1 0-6.514-6.514l-3.388 3.387v-1.41a4.606 4.606 0 0 0-9.212 0v5.473c-24.829 4.383-43.696 26.048-43.696 52.134v70.224c0 42.743 34.652 77.395 77.395 77.395h70.202c33.179 0 60.076-26.898 60.076-60.077v-47.868c.001-5.514-4.469-9.984-9.982-9.984Z"/>
    <path fill="#2A0405" stroke="#0E0303" stroke-width=".002" d="M214.347 182.582a2.273 2.273 0 0 1 2.273 2.273h.013c-1.195 31.989-27.506 57.557-59.787 57.557-32.282 0-58.593-25.568-59.787-57.557h.013a2.273 2.273 0 0 1 2.272-2.273h115.003Z"/>
    <path fill="#3F0A0A" stroke="#0E0303" stroke-width=".002" d="M83.873 126.832H41.758c-8.784 0-15.904 7.12-15.904 15.904 0 8.782 7.12 15.902 15.904 15.902h42.115c8.782 0 15.904-7.12 15.904-15.902 0-8.784-7.121-15.904-15.904-15.904Z"/>
    <path fill="#D93D3F" stroke="#0E0303" stroke-width=".002" d="M101.91 118.673a5.563 5.563 0 0 0 5.563-5.563c0-3.073-2.491-3.11-5.563-3.11-3.072 0-5.563.037-5.563 3.11a5.563 5.563 0 0 0 5.563 5.563Z"/>
    <path fill="#3F0A0A" d="M84.307 102.02c.127-3.311 8.18 2.816 18.39 3.208 10.21.391 18.21-5.12 18.083-1.809-.127 3.312-8.084 7.696-18.294 7.305-10.21-.392-18.306-5.392-18.18-8.704Z"/>
  </g>
  <defs>
    <clipPath id="a">
      <path fill="#fff" d="M10 62h265v265H10z"/>
    </clipPath>
  </defs>
</svg>
