<svg xmlns="http://www.w3.org/2000/svg" width="104" height="116" fill="none" viewBox="0 0 104 116">
  <path fill="#3C0203" stroke="#A5A5A5" stroke-width=".002" d="M51.222 80.281a4.525 4.525 0 0 0-4.524 4.525v23.649h-8.49a3.773 3.773 0 1 0 0 7.546h13.766a3.773 3.773 0 0 0 3.773-3.773V84.806a4.525 4.525 0 0 0-4.525-4.525Z"/>
  <path fill="#540B0E" stroke="#A5A5A5" stroke-width=".002" d="M70.341 80.281a4.524 4.524 0 0 0-4.524 4.525v23.649h-8.49a3.773 3.773 0 1 0 0 7.546h13.766a3.773 3.773 0 0 0 3.773-3.773V84.806a4.525 4.525 0 0 0-4.525-4.525Z"/>
  <path fill="#370A0A" stroke="#A5A5A5" stroke-width=".002" d="M98.691 40.23a4.37 4.37 0 0 0-4.37 4.37v1.38a26.197 26.197 0 0 0-17.558-6.725H58.518V27.233c0-11.464-8.324-20.979-19.255-22.844l.386-.387a2.017 2.017 0 0 0-2.852-2.851l-1.482 1.482v-.617a2.016 2.016 0 0 0-4.033 0v2.396C20.413 6.33 12.155 15.814 12.155 27.233v30.74c0 18.71 15.168 33.878 33.878 33.878h30.73c14.524 0 26.298-11.774 26.298-26.298V44.6a4.37 4.37 0 0 0-4.37-4.37Z"/>
  <path fill="#9E2A2B" stroke="#A5A5A5" stroke-width=".002" d="M83.45 52.783c.55 0 .995.446.995.995h.006c-.524 14.003-12.041 25.195-26.172 25.195-14.13 0-25.648-11.192-26.17-25.195h.005c0-.55.446-.995.995-.995h50.34Z"/>
  <path fill="#540B0E" d="M26.337 28.379H7.9a6.961 6.961 0 1 0 0 13.923h18.436a6.962 6.962 0 1 0 0-13.923Z"/>
  <path fill="#fff" stroke="#A5A5A5" stroke-width=".002" d="M34.232 24.808a2.435 2.435 0 1 0 0-4.87 2.435 2.435 0 0 0 0 4.87Z"/>
  <path fill="#540B0E" d="M42.768 23.893c-.836 1.185-2.331-2.985-5.985-5.564-3.654-2.579-7.905-2.464-7.069-3.649.837-1.185 4.803-.897 8.457 1.682 3.654 2.579 5.433 6.346 4.597 7.53Z"/>
</svg>
